<svg width="24" height="24" viewBox="0 0 24 24" fill="none" xmlns="http://www.w3.org/2000/svg">
<path d="M21.9601 9.35246L13.9501 2.71496C13.7278 2.52686 13.4555 2.40755 13.1665 2.37159C12.8775 2.33563 12.5842 2.38458 12.3226 2.51246C12.0648 2.63351 11.8468 2.82545 11.694 3.06584C11.5413 3.30624 11.4601 3.58515 11.4601 3.86996V5.36996C8.54123 6.39022 6.01317 8.29528 4.22794 10.8199C2.44271 13.3445 1.48917 16.3629 1.50009 19.455C1.49915 20.2363 1.56185 21.0163 1.68759 21.7875C1.71206 21.9425 1.78456 22.086 1.8949 22.1977C2.00523 22.3094 2.14783 22.3836 2.30259 22.41H2.43009C2.56577 22.4096 2.69881 22.3724 2.81504 22.3024C2.93126 22.2324 3.02632 22.1322 3.09009 22.0125C3.94778 20.3989 5.13682 18.9847 6.57928 17.8628C8.02173 16.7409 9.68501 15.9366 11.4601 15.5025V17.1225C11.4601 17.4073 11.5413 17.6862 11.694 17.9266C11.8468 18.167 12.0648 18.3589 12.3226 18.48C12.529 18.5774 12.7543 18.6286 12.9826 18.63C13.3375 18.6282 13.6803 18.5006 13.9501 18.27L17.5951 15.27L17.6626 15.2175L21.9601 11.655C22.1273 11.5142 22.2618 11.3385 22.354 11.1403C22.4463 10.9421 22.494 10.7261 22.494 10.5075C22.494 10.2888 22.4463 10.0729 22.354 9.87464C22.2618 9.67642 22.1273 9.50076 21.9601 9.35996V9.35246ZM16.7626 14.0025L16.6951 14.055L12.9451 17.13V14.565C12.9494 14.5452 12.9494 14.5247 12.9451 14.505C12.9451 14.505 12.9451 14.46 12.9451 14.4375C12.9451 14.415 12.9451 14.385 12.9076 14.355C12.8934 14.3088 12.8758 14.2636 12.8551 14.22C12.8279 14.1737 12.7923 14.133 12.7501 14.1C12.7263 14.0623 12.6958 14.0292 12.6601 14.0025C12.6208 13.9681 12.5781 13.9379 12.5326 13.9125L12.4201 13.86H12.2551H12.1801H12.1201H12.0526C8.44145 14.4828 5.20388 16.4597 3.00009 19.3875C3.00308 16.5349 3.91916 13.7583 5.61423 11.464C7.30929 9.16971 9.69431 7.47832 12.4201 6.63746H12.4576C12.5071 6.61952 12.5548 6.59692 12.6001 6.56996C12.6527 6.54169 12.7029 6.50908 12.7501 6.47246L12.8401 6.36746C12.8719 6.33217 12.8973 6.29155 12.9151 6.24746C12.9346 6.20667 12.9497 6.16393 12.9601 6.11996C12.9643 6.06755 12.9643 6.01487 12.9601 5.96246V3.90746L21.0001 10.5L16.7626 14.0025Z" fill="black"/>
</svg>
